# xmcd
#
# Track frame offsets:
#	150
#	22479
#	43718
#	69044
#	79244
#	99202
#	105001
#	131419
#	149597
#	172761
#	181889
#	196892
#	219865
#	233144
#
# Disc length: 3326 seconds
#
# Revision: 0
# Processed by: cddbd v1.5.2PL0 Copyright (c) Steve Scherf et al.
# Submitted via: EasyCDDAExtractor 15.2.0.1
#
DISCID=ae0cfc0e
DTITLE=Giant Sand - Ramp
DYEAR=1994
DGENRE=AlternRock
TTITLE0=Romance Of Falling
TTITLE1=Warm Storm
TTITLE2=Wonder
TTITLE3=Welcome To My World
TTITLE4=Anti-Shadow
TTITLE5=Jazzer Snipe
TTITLE6=Z. Z. Quicker Foot
TTITLE7=Neon Filler
TTITLE8=Seldom Matters
TTITLE9=Resolver 
TTITLE10=Nowhere
TTITLE11=Always Horses Coming
TTITLE12=Patsy's Blues
TTITLE13=Shadow To You (Bonus)
EXTD=
EXTT0=
EXTT1=
EXTT2=
EXTT3=
EXTT4=
EXTT5=
EXTT6=
EXTT7=
EXTT8=
EXTT9=
EXTT10=
EXTT11=
EXTT12=
EXTT13=
PLAYORDER=
